<?xml version="1.0" encoding="utf-8" standalone="no"?>
<!DOCTYPE svg PUBLIC "-//W3C//DTD SVG 1.1//EN"
  "http://www.w3.org/Graphics/SVG/1.1/DTD/svg11.dtd">
<svg xmlns:xlink="http://www.w3.org/1999/xlink" width="523.202259pt" height="229.04576pt" viewBox="0 0 523.202259 229.04576" xmlns="http://www.w3.org/2000/svg" version="1.1">
 <metadata>
  <rdf:RDF xmlns:dc="http://purl.org/dc/elements/1.1/" xmlns:cc="http://creativecommons.org/ns#" xmlns:rdf="http://www.w3.org/1999/02/22-rdf-syntax-ns#">
   <cc:Work>
    <dc:type rdf:resource="http://purl.org/dc/dcmitype/StillImage"/>
    <dc:date>2026-07-18T19:59:41.848873</dc:date>
    <dc:format>image/svg+xml</dc:format>
    <dc:creator>
     <cc:Agent>
      <dc:title>Matplotlib v3.10.8, https://matplotlib.org/</dc:title>
     </cc:Agent>
    </dc:creator>
   </cc:Work>
  </rdf:RDF>
 </metadata>
 <defs>
  <style type="text/css">*{stroke-linejoin: round; stroke-linecap: butt}</style>
 </defs>
 <g id="figure_1">
  <g id="patch_1">
   <path d="M 0 229.04576 
L 523.202259 229.04576 
L 523.202259 -0 
L 0 -0 
z
" style="fill: #ffffff"/>
  </g>
  <g id="axes_1">
   <g id="patch_2">
    <path d="M 36.336641 199.417557 
L 257.609352 199.417557 
L 257.609352 26.633974 
L 36.336641 26.633974 
z
" style="fill: #ffffff"/>
   </g>
   <g id="matplotlib.axis_1">
    <g id="xtick_1">
     <g id="line2d_1">
      <defs>
       <path id="m0866c980bf" d="M 0 0 
L 0 2.5 
" style="stroke: #343a40; stroke-width: 0.55"/>
      </defs>
      <g>
       <use xlink:href="#m0866c980bf" x="55.432536" y="199.417557" style="fill: #343a40; stroke: #343a40; stroke-width: 0.55"/>
      </g>
     </g>
     <g id="text_1">
      <text style="font-size: 6.5px; font-family: 'Arial', 'Helvetica', 'DejaVu Sans', sans-serif; text-anchor: middle; fill: #343a40" x="55.432536" y="210.070135" transform="rotate(-0 55.432536 210.070135)">10</text>
     </g>
    </g>
    <g id="xtick_2">
     <g id="line2d_2">
      <g>
       <use xlink:href="#m0866c980bf" x="88.719976" y="199.417557" style="fill: #343a40; stroke: #343a40; stroke-width: 0.55"/>
      </g>
     </g>
     <g id="text_2">
      <text style="font-size: 6.5px; font-family: 'Arial', 'Helvetica', 'DejaVu Sans', sans-serif; text-anchor: middle; fill: #343a40" x="88.719976" y="210.070135" transform="rotate(-0 88.719976 210.070135)">15</text>
     </g>
    </g>
    <g id="xtick_3">
     <g id="line2d_3">
      <g>
       <use xlink:href="#m0866c980bf" x="122.007416" y="199.417557" style="fill: #343a40; stroke: #343a40; stroke-width: 0.55"/>
      </g>
     </g>
     <g id="text_3">
      <text style="font-size: 6.5px; font-family: 'Arial', 'Helvetica', 'DejaVu Sans', sans-serif; text-anchor: middle; fill: #343a40" x="122.007416" y="210.070135" transform="rotate(-0 122.007416 210.070135)">20</text>
     </g>
    </g>
    <g id="xtick_4">
     <g id="line2d_4">
      <g>
       <use xlink:href="#m0866c980bf" x="155.294856" y="199.417557" style="fill: #343a40; stroke: #343a40; stroke-width: 0.55"/>
      </g>
     </g>
     <g id="text_4">
      <text style="font-size: 6.5px; font-family: 'Arial', 'Helvetica', 'DejaVu Sans', sans-serif; text-anchor: middle; fill: #343a40" x="155.294856" y="210.070135" transform="rotate(-0 155.294856 210.070135)">25</text>
     </g>
    </g>
    <g id="xtick_5">
     <g id="line2d_5">
      <g>
       <use xlink:href="#m0866c980bf" x="188.582297" y="199.417557" style="fill: #343a40; stroke: #343a40; stroke-width: 0.55"/>
      </g>
     </g>
     <g id="text_5">
      <text style="font-size: 6.5px; font-family: 'Arial', 'Helvetica', 'DejaVu Sans', sans-serif; text-anchor: middle; fill: #343a40" x="188.582297" y="210.070135" transform="rotate(-0 188.582297 210.070135)">30</text>
     </g>
    </g>
    <g id="xtick_6">
     <g id="line2d_6">
      <g>
       <use xlink:href="#m0866c980bf" x="221.869737" y="199.417557" style="fill: #343a40; stroke: #343a40; stroke-width: 0.55"/>
      </g>
     </g>
     <g id="text_6">
      <text style="font-size: 6.5px; font-family: 'Arial', 'Helvetica', 'DejaVu Sans', sans-serif; text-anchor: middle; fill: #343a40" x="221.869737" y="210.070135" transform="rotate(-0 221.869737 210.070135)">35</text>
     </g>
    </g>
    <g id="xtick_7">
     <g id="line2d_7">
      <g>
       <use xlink:href="#m0866c980bf" x="255.157177" y="199.417557" style="fill: #343a40; stroke: #343a40; stroke-width: 0.55"/>
      </g>
     </g>
     <g id="text_7">
      <text style="font-size: 6.5px; font-family: 'Arial', 'Helvetica', 'DejaVu Sans', sans-serif; text-anchor: middle; fill: #343a40" x="255.157177" y="210.070135" transform="rotate(-0 255.157177 210.070135)">40</text>
     </g>
    </g>
    <g id="text_8">
     <text style="font-size: 7px; font-family: 'Arial', 'Helvetica', 'DejaVu Sans', sans-serif; text-anchor: middle" x="146.972996" y="220.372479" transform="rotate(-0 146.972996 220.372479)">Within-training mean LT-RN count</text>
    </g>
   </g>
   <g id="matplotlib.axis_2">
    <g id="ytick_1">
     <g id="line2d_8">
      <path d="M 36.336641 193.542596 
L 257.609352 193.542596 
" clip-path="url(#p5e85b9a9b7)" style="fill: none; stroke: #d9dee2; stroke-opacity: 0.85; stroke-width: 0.45; stroke-linecap: square"/>
     </g>
     <g id="line2d_9">
      <defs>
       <path id="me735a35173" d="M 0 0 
L -2.5 0 
" style="stroke: #343a40; stroke-width: 0.55"/>
      </defs>
      <g>
       <use xlink:href="#me735a35173" x="36.336641" y="193.542596" style="fill: #343a40; stroke: #343a40; stroke-width: 0.55"/>
      </g>
     </g>
     <g id="text_9">
      <text style="font-size: 6.5px; font-family: 'Arial', 'Helvetica', 'DejaVu Sans', sans-serif; text-anchor: end; fill: #343a40" x="30.336641" y="195.868885" transform="rotate(-0 30.336641 195.868885)">-2.5</text>
     </g>
    </g>
    <g id="ytick_2">
     <g id="line2d_10">
      <path d="M 36.336641 171.776358 
L 257.609352 171.776358 
" clip-path="url(#p5e85b9a9b7)" style="fill: none; stroke: #d9dee2; stroke-opacity: 0.85; stroke-width: 0.45; stroke-linecap: square"/>
     </g>
     <g id="line2d_11">
      <g>
       <use xlink:href="#me735a35173" x="36.336641" y="171.776358" style="fill: #343a40; stroke: #343a40; stroke-width: 0.55"/>
      </g>
     </g>
     <g id="text_10">
      <text style="font-size: 6.5px; font-family: 'Arial', 'Helvetica', 'DejaVu Sans', sans-serif; text-anchor: end; fill: #343a40" x="30.336641" y="174.102647" transform="rotate(-0 30.336641 174.102647)">0.0</text>
     </g>
    </g>
    <g id="ytick_3">
     <g id="line2d_12">
      <path d="M 36.336641 150.01012 
L 257.609352 150.01012 
" clip-path="url(#p5e85b9a9b7)" style="fill: none; stroke: #d9dee2; stroke-opacity: 0.85; stroke-width: 0.45; stroke-linecap: square"/>
     </g>
     <g id="line2d_13">
      <g>
       <use xlink:href="#me735a35173" x="36.336641" y="150.01012" style="fill: #343a40; stroke: #343a40; stroke-width: 0.55"/>
      </g>
     </g>
     <g id="text_11">
      <text style="font-size: 6.5px; font-family: 'Arial', 'Helvetica', 'DejaVu Sans', sans-serif; text-anchor: end; fill: #343a40" x="30.336641" y="152.336409" transform="rotate(-0 30.336641 152.336409)">2.5</text>
     </g>
    </g>
    <g id="ytick_4">
     <g id="line2d_14">
      <path d="M 36.336641 128.243882 
L 257.609352 128.243882 
" clip-path="url(#p5e85b9a9b7)" style="fill: none; stroke: #d9dee2; stroke-opacity: 0.85; stroke-width: 0.45; stroke-linecap: square"/>
     </g>
     <g id="line2d_15">
      <g>
       <use xlink:href="#me735a35173" x="36.336641" y="128.243882" style="fill: #343a40; stroke: #343a40; stroke-width: 0.55"/>
      </g>
     </g>
     <g id="text_12">
      <text style="font-size: 6.5px; font-family: 'Arial', 'Helvetica', 'DejaVu Sans', sans-serif; text-anchor: end; fill: #343a40" x="30.336641" y="130.570172" transform="rotate(-0 30.336641 130.570172)">5.0</text>
     </g>
    </g>
    <g id="ytick_5">
     <g id="line2d_16">
      <path d="M 36.336641 106.477645 
L 257.609352 106.477645 
" clip-path="url(#p5e85b9a9b7)" style="fill: none; stroke: #d9dee2; stroke-opacity: 0.85; stroke-width: 0.45; stroke-linecap: square"/>
     </g>
     <g id="line2d_17">
      <g>
       <use xlink:href="#me735a35173" x="36.336641" y="106.477645" style="fill: #343a40; stroke: #343a40; stroke-width: 0.55"/>
      </g>
     </g>
     <g id="text_13">
      <text style="font-size: 6.5px; font-family: 'Arial', 'Helvetica', 'DejaVu Sans', sans-serif; text-anchor: end; fill: #343a40" x="30.336641" y="108.803934" transform="rotate(-0 30.336641 108.803934)">7.5</text>
     </g>
    </g>
    <g id="ytick_6">
     <g id="line2d_18">
      <path d="M 36.336641 84.711407 
L 257.609352 84.711407 
" clip-path="url(#p5e85b9a9b7)" style="fill: none; stroke: #d9dee2; stroke-opacity: 0.85; stroke-width: 0.45; stroke-linecap: square"/>
     </g>
     <g id="line2d_19">
      <g>
       <use xlink:href="#me735a35173" x="36.336641" y="84.711407" style="fill: #343a40; stroke: #343a40; stroke-width: 0.55"/>
      </g>
     </g>
     <g id="text_14">
      <text style="font-size: 6.5px; font-family: 'Arial', 'Helvetica', 'DejaVu Sans', sans-serif; text-anchor: end; fill: #343a40" x="30.336641" y="87.037696" transform="rotate(-0 30.336641 87.037696)">10.0</text>
     </g>
    </g>
    <g id="ytick_7">
     <g id="line2d_20">
      <path d="M 36.336641 62.945169 
L 257.609352 62.945169 
" clip-path="url(#p5e85b9a9b7)" style="fill: none; stroke: #d9dee2; stroke-opacity: 0.85; stroke-width: 0.45; stroke-linecap: square"/>
     </g>
     <g id="line2d_21">
      <g>
       <use xlink:href="#me735a35173" x="36.336641" y="62.945169" style="fill: #343a40; stroke: #343a40; stroke-width: 0.55"/>
      </g>
     </g>
     <g id="text_15">
      <text style="font-size: 6.5px; font-family: 'Arial', 'Helvetica', 'DejaVu Sans', sans-serif; text-anchor: end; fill: #343a40" x="30.336641" y="65.271458" transform="rotate(-0 30.336641 65.271458)">12.5</text>
     </g>
    </g>
    <g id="ytick_8">
     <g id="line2d_22">
      <path d="M 36.336641 41.178931 
L 257.609352 41.178931 
" clip-path="url(#p5e85b9a9b7)" style="fill: none; stroke: #d9dee2; stroke-opacity: 0.85; stroke-width: 0.45; stroke-linecap: square"/>
     </g>
     <g id="line2d_23">
      <g>
       <use xlink:href="#me735a35173" x="36.336641" y="41.178931" style="fill: #343a40; stroke: #343a40; stroke-width: 0.55"/>
      </g>
     </g>
     <g id="text_16">
      <text style="font-size: 6.5px; font-family: 'Arial', 'Helvetica', 'DejaVu Sans', sans-serif; text-anchor: end; fill: #343a40" x="30.336641" y="43.50522" transform="rotate(-0 30.336641 43.50522)">15.0</text>
     </g>
    </g>
    <g id="text_17">
     <text style="font-size: 7px; font-family: 'Arial', 'Helvetica', 'DejaVu Sans', sans-serif; text-anchor: middle" x="12.295781" y="113.025766" transform="rotate(-90 12.295781 113.025766)">Suture-completion score</text>
    </g>
   </g>
   <g id="FillBetweenPolyCollection_1">
    <defs>
     <path id="m0f2dba4e5b" d="M 53.213373 -91.582043 
L 53.213373 -48.526407 
L 54.789165 -49.41607 
L 56.364957 -50.304553 
L 57.940749 -51.1918 
L 59.516541 -52.077752 
L 61.092333 -52.962346 
L 62.668125 -53.845514 
L 64.243917 -54.727188 
L 65.819709 -55.60729 
L 67.395501 -56.485742 
L 68.971293 -57.362458 
L 70.547085 -58.237349 
L 72.122877 -59.110317 
L 73.698669 -59.981261 
L 75.274461 -60.850071 
L 76.850253 -61.716631 
L 78.426045 -62.580818 
L 80.001837 -63.442499 
L 81.577629 -64.301534 
L 83.153421 -65.157773 
L 84.729213 -66.011055 
L 86.305005 -66.86121 
L 87.880797 -67.708057 
L 89.456589 -68.5514 
L 91.032381 -69.391034 
L 92.608173 -70.226737 
L 94.183965 -71.058276 
L 95.759757 -71.8854 
L 97.335549 -72.707845 
L 98.911341 -73.525328 
L 100.487133 -74.337552 
L 102.062925 -75.1442 
L 103.638717 -75.944937 
L 105.214509 -76.739412 
L 106.790301 -77.527255 
L 108.366093 -78.308078 
L 109.941885 -79.081476 
L 111.517677 -79.847027 
L 113.093469 -80.604295 
L 114.669261 -81.352832 
L 116.245053 -82.092176 
L 117.820845 -82.821863 
L 119.396637 -83.541419 
L 120.972428 -84.250376 
L 122.54822 -84.948268 
L 124.124012 -85.634641 
L 125.699804 -86.309059 
L 127.275596 -86.971109 
L 128.851388 -87.620407 
L 130.42718 -88.256608 
L 132.002972 -88.879407 
L 133.578764 -89.488553 
L 135.154556 -90.083845 
L 136.730348 -90.665143 
L 138.30614 -91.232369 
L 139.881932 -91.785508 
L 141.457724 -92.324608 
L 143.033516 -92.849782 
L 144.609308 -93.361203 
L 146.1851 -93.859098 
L 147.760892 -94.343749 
L 149.336684 -94.815483 
L 150.912476 -95.274666 
L 152.488268 -95.721698 
L 154.06406 -96.157006 
L 155.639852 -96.581037 
L 157.215644 -96.99425 
L 158.791436 -97.397115 
L 160.367228 -97.790103 
L 161.94302 -98.173683 
L 163.518812 -98.548318 
L 165.094604 -98.914464 
L 166.670396 -99.272561 
L 168.246188 -99.62304 
L 169.82198 -99.966312 
L 171.397772 -100.302774 
L 172.973564 -100.632803 
L 174.549356 -100.956762 
L 176.125148 -101.274991 
L 177.70094 -101.587815 
L 179.276732 -101.895542 
L 180.852524 -102.19846 
L 182.428316 -102.496842 
L 184.004108 -102.790946 
L 185.5799 -103.081012 
L 187.155692 -103.367267 
L 188.731484 -103.649926 
L 190.307276 -103.929186 
L 191.883068 -104.205236 
L 193.45886 -104.478253 
L 195.034652 -104.748399 
L 196.610444 -105.015831 
L 198.186236 -105.280693 
L 199.762028 -105.543121 
L 201.33782 -105.803243 
L 202.913612 -106.061178 
L 204.489404 -106.317039 
L 206.065196 -106.570931 
L 207.640988 -106.822953 
L 209.21678 -107.073198 
L 210.792572 -107.321753 
L 212.368364 -107.568702 
L 213.944156 -107.81412 
L 215.519948 -108.058081 
L 217.09574 -108.300654 
L 218.671532 -108.541902 
L 220.247324 -108.781888 
L 221.823116 -109.020667 
L 223.398908 -109.258296 
L 224.9747 -109.494824 
L 226.550492 -109.7303 
L 228.126284 -109.96477 
L 229.702076 -110.198276 
L 231.277868 -110.430861 
L 232.85366 -110.662562 
L 234.429452 -110.893416 
L 236.005244 -111.123458 
L 237.581036 -111.352721 
L 239.156828 -111.581236 
L 240.73262 -111.809034 
L 240.73262 -162.519632 
L 240.73262 -162.519632 
L 239.156828 -161.619528 
L 237.581036 -160.720142 
L 236.005244 -159.821504 
L 234.429452 -158.923646 
L 232.85366 -158.026599 
L 231.277868 -157.130399 
L 229.702076 -156.235083 
L 228.126284 -155.340688 
L 226.550492 -154.447257 
L 224.9747 -153.554832 
L 223.398908 -152.663459 
L 221.823116 -151.773186 
L 220.247324 -150.884065 
L 218.671532 -149.99615 
L 217.09574 -149.109497 
L 215.519948 -148.224169 
L 213.944156 -147.340229 
L 212.368364 -146.457747 
L 210.792572 -145.576794 
L 209.21678 -144.697448 
L 207.640988 -143.819792 
L 206.065196 -142.943913 
L 204.489404 -142.069904 
L 202.913612 -141.197864 
L 201.33782 -140.327898 
L 199.762028 -139.460119 
L 198.186236 -138.594646 
L 196.610444 -137.731608 
L 195.034652 -136.871138 
L 193.45886 -136.013384 
L 191.883068 -135.158499 
L 190.307276 -134.306649 
L 188.731484 -133.458008 
L 187.155692 -132.612765 
L 185.5799 -131.77112 
L 184.004108 -130.933285 
L 182.428316 -130.099488 
L 180.852524 -129.269969 
L 179.276732 -128.444986 
L 177.70094 -127.624812 
L 176.125148 -126.809735 
L 174.549356 -126.000064 
L 172.973564 -125.196121 
L 171.397772 -124.39825 
L 169.82198 -123.60681 
L 168.246188 -122.822181 
L 166.670396 -122.044759 
L 165.094604 -121.274956 
L 163.518812 -120.5132 
L 161.94302 -119.759934 
L 160.367228 -119.015613 
L 158.791436 -118.2807 
L 157.215644 -117.555664 
L 155.639852 -116.840977 
L 154.06406 -116.137106 
L 152.488268 -115.444514 
L 150.912476 -114.763645 
L 149.336684 -114.094927 
L 147.760892 -113.438759 
L 146.1851 -112.79551 
L 144.609308 -112.165504 
L 143.033516 -111.549023 
L 141.457724 -110.946297 
L 139.881932 -110.357496 
L 138.30614 -109.782734 
L 136.730348 -109.222059 
L 135.154556 -108.675456 
L 133.578764 -108.142847 
L 132.002972 -107.624092 
L 130.42718 -107.118991 
L 128.851388 -106.62729 
L 127.275596 -106.148687 
L 125.699804 -105.682836 
L 124.124012 -105.229353 
L 122.54822 -104.787825 
L 120.972428 -104.357816 
L 119.396637 -103.938872 
L 117.820845 -103.530528 
L 116.245053 -103.132313 
L 114.669261 -102.743757 
L 113.093469 -102.364392 
L 111.517677 -101.99376 
L 109.941885 -101.63141 
L 108.366093 -101.276906 
L 106.790301 -100.929828 
L 105.214509 -100.58977 
L 103.638717 -100.256345 
L 102.062925 -99.929181 
L 100.487133 -99.607928 
L 98.911341 -99.29225 
L 97.335549 -98.981833 
L 95.759757 -98.676377 
L 94.183965 -98.3756 
L 92.608173 -98.079238 
L 91.032381 -97.78704 
L 89.456589 -97.498773 
L 87.880797 -97.214215 
L 86.305005 -96.933161 
L 84.729213 -96.655415 
L 83.153421 -96.380797 
L 81.577629 -96.109134 
L 80.001837 -95.840268 
L 78.426045 -95.574049 
L 76.850253 -95.310334 
L 75.274461 -95.048994 
L 73.698669 -94.789903 
L 72.122877 -94.532946 
L 70.547085 -94.278013 
L 68.971293 -94.025002 
L 67.395501 -93.773817 
L 65.819709 -93.524368 
L 64.243917 -93.27657 
L 62.668125 -93.030342 
L 61.092333 -92.78561 
L 59.516541 -92.542303 
L 57.940749 -92.300353 
L 56.364957 -92.059699 
L 54.789165 -91.820281 
L 53.213373 -91.582043 
z
"/>
    </defs>
    <g clip-path="url(#p5e85b9a9b7)">
     <use xlink:href="#m0f2dba4e5b" x="0" y="229.04576" style="fill: #2d3436; fill-opacity: 0.12"/>
    </g>
   </g>
   <g id="line2d_24">
    <path d="M 53.213373 158.991535 
L 54.789165 158.427584 
L 56.364957 157.863634 
L 57.940749 157.299683 
L 59.516541 156.735733 
L 61.092333 156.171782 
L 62.668125 155.607832 
L 64.243917 155.043881 
L 65.819709 154.479931 
L 67.395501 153.91598 
L 68.971293 153.35203 
L 70.547085 152.788079 
L 72.122877 152.224129 
L 73.698669 151.660178 
L 75.274461 151.096228 
L 76.850253 150.532277 
L 78.426045 149.968327 
L 80.001837 149.404376 
L 81.577629 148.840426 
L 83.153421 148.276475 
L 84.729213 147.712525 
L 86.305005 147.148574 
L 87.880797 146.584624 
L 89.456589 146.020673 
L 91.032381 145.456723 
L 92.608173 144.892773 
L 94.183965 144.328822 
L 95.759757 143.764872 
L 97.335549 143.200921 
L 98.911341 142.636971 
L 100.487133 142.07302 
L 102.062925 141.50907 
L 103.638717 140.945119 
L 105.214509 140.381169 
L 106.790301 139.817218 
L 108.366093 139.253268 
L 109.941885 138.689317 
L 111.517677 138.125367 
L 113.093469 137.561416 
L 114.669261 136.997466 
L 116.245053 136.433515 
L 117.820845 135.869565 
L 119.396637 135.305614 
L 120.972428 134.741664 
L 122.54822 134.177713 
L 124.124012 133.613763 
L 125.699804 133.049812 
L 127.275596 132.485862 
L 128.851388 131.921911 
L 130.42718 131.357961 
L 132.002972 130.79401 
L 133.578764 130.23006 
L 135.154556 129.66611 
L 136.730348 129.102159 
L 138.30614 128.538209 
L 139.881932 127.974258 
L 141.457724 127.410308 
L 143.033516 126.846357 
L 144.609308 126.282407 
L 146.1851 125.718456 
L 147.760892 125.154506 
L 149.336684 124.590555 
L 150.912476 124.026605 
L 152.488268 123.462654 
L 154.06406 122.898704 
L 155.639852 122.334753 
L 157.215644 121.770803 
L 158.791436 121.206852 
L 160.367228 120.642902 
L 161.94302 120.078951 
L 163.518812 119.515001 
L 165.094604 118.95105 
L 166.670396 118.3871 
L 168.246188 117.823149 
L 169.82198 117.259199 
L 171.397772 116.695248 
L 172.973564 116.131298 
L 174.549356 115.567347 
L 176.125148 115.003397 
L 177.70094 114.439447 
L 179.276732 113.875496 
L 180.852524 113.311546 
L 182.428316 112.747595 
L 184.004108 112.183645 
L 185.5799 111.619694 
L 187.155692 111.055744 
L 188.731484 110.491793 
L 190.307276 109.927843 
L 191.883068 109.363892 
L 193.45886 108.799942 
L 195.034652 108.235991 
L 196.610444 107.672041 
L 198.186236 107.10809 
L 199.762028 106.54414 
L 201.33782 105.980189 
L 202.913612 105.416239 
L 204.489404 104.852288 
L 206.065196 104.288338 
L 207.640988 103.724387 
L 209.21678 103.160437 
L 210.792572 102.596486 
L 212.368364 102.032536 
L 213.944156 101.468585 
L 215.519948 100.904635 
L 217.09574 100.340684 
L 218.671532 99.776734 
L 220.247324 99.212784 
L 221.823116 98.648833 
L 223.398908 98.084883 
L 224.9747 97.520932 
L 226.550492 96.956982 
L 228.126284 96.393031 
L 229.702076 95.829081 
L 231.277868 95.26513 
L 232.85366 94.70118 
L 234.429452 94.137229 
L 236.005244 93.573279 
L 237.581036 93.009328 
L 239.156828 92.445378 
L 240.73262 91.881427 
" clip-path="url(#p5e85b9a9b7)" style="fill: none; stroke: #2d3436; stroke-width: 1.35; stroke-linecap: square"/>
   </g>
   <g id="patch_3">
    <path d="M 36.336641 199.417557 
L 36.336641 26.633974 
" style="fill: none; stroke: #60666b; stroke-width: 0.6; stroke-linejoin: miter; stroke-linecap: square"/>
   </g>
   <g id="patch_4">
    <path d="M 36.336641 199.417557 
L 257.609352 199.417557 
" style="fill: none; stroke: #60666b; stroke-width: 0.6; stroke-linejoin: miter; stroke-linecap: square"/>
   </g>
   <g id="PathCollection_1">
    <defs>
     <path id="m61c3379397" d="M 0 2.54951 
C 0.676138 2.54951 1.324674 2.280877 1.802776 1.802776 
C 2.280877 1.324674 2.54951 0.676138 2.54951 0 
C 2.54951 -0.676138 2.280877 -1.324674 1.802776 -1.802776 
C 1.324674 -2.280877 0.676138 -2.54951 0 -2.54951 
C -0.676138 -2.54951 -1.324674 -2.280877 -1.802776 -1.802776 
C -2.280877 -1.324674 -2.54951 -0.676138 -2.54951 0 
C -2.54951 0.676138 -2.280877 1.324674 -1.802776 1.802776 
C -1.324674 2.280877 -0.676138 2.54951 0 2.54951 
z
" style="stroke: #ffffff; stroke-opacity: 0.9; stroke-width: 0.55"/>
    </defs>
    <g clip-path="url(#p5e85b9a9b7)">
     <use xlink:href="#m61c3379397" x="87.388478" y="134.773754" style="fill: #3f6f8f; fill-opacity: 0.9; stroke: #ffffff; stroke-opacity: 0.9; stroke-width: 0.55"/>
     <use xlink:href="#m61c3379397" x="122.007416" y="131.508818" style="fill: #3f6f8f; fill-opacity: 0.9; stroke: #ffffff; stroke-opacity: 0.9; stroke-width: 0.55"/>
     <use xlink:href="#m61c3379397" x="180.815227" y="130.420506" style="fill: #3f6f8f; fill-opacity: 0.9; stroke: #ffffff; stroke-opacity: 0.9; stroke-width: 0.55"/>
     <use xlink:href="#m61c3379397" x="122.007416" y="145.656873" style="fill: #3f6f8f; fill-opacity: 0.9; stroke: #ffffff; stroke-opacity: 0.9; stroke-width: 0.55"/>
     <use xlink:href="#m61c3379397" x="107.582859" y="131.508818" style="fill: #3f6f8f; fill-opacity: 0.9; stroke: #ffffff; stroke-opacity: 0.9; stroke-width: 0.55"/>
     <use xlink:href="#m61c3379397" x="66.528349" y="153.275056" style="fill: #3f6f8f; fill-opacity: 0.9; stroke: #ffffff; stroke-opacity: 0.9; stroke-width: 0.55"/>
     <use xlink:href="#m61c3379397" x="124.226579" y="103.212709" style="fill: #3f6f8f; fill-opacity: 0.9; stroke: #ffffff; stroke-opacity: 0.9; stroke-width: 0.55"/>
     <use xlink:href="#m61c3379397" x="107.582859" y="152.186744" style="fill: #3f6f8f; fill-opacity: 0.9; stroke: #ffffff; stroke-opacity: 0.9; stroke-width: 0.55"/>
     <use xlink:href="#m61c3379397" x="145.308624" y="147.833496" style="fill: #3f6f8f; fill-opacity: 0.9; stroke: #ffffff; stroke-opacity: 0.9; stroke-width: 0.55"/>
     <use xlink:href="#m61c3379397" x="98.706208" y="156.539992" style="fill: #3f6f8f; fill-opacity: 0.9; stroke: #ffffff; stroke-opacity: 0.9; stroke-width: 0.55"/>
     <use xlink:href="#m61c3379397" x="133.10323" y="141.303625" style="fill: #3f6f8f; fill-opacity: 0.9; stroke: #ffffff; stroke-opacity: 0.9; stroke-width: 0.55"/>
    </g>
   </g>
   <g id="PathCollection_2">
    <defs>
     <path id="m2174f43cca" d="M 0 2.54951 
C 0.676138 2.54951 1.324674 2.280877 1.802776 1.802776 
C 2.280877 1.324674 2.54951 0.676138 2.54951 0 
C 2.54951 -0.676138 2.280877 -1.324674 1.802776 -1.802776 
C 1.324674 -2.280877 0.676138 -2.54951 0 -2.54951 
C -0.676138 -2.54951 -1.324674 -2.280877 -1.802776 -1.802776 
C -2.280877 -1.324674 -2.54951 -0.676138 -2.54951 0 
C -2.54951 0.676138 -2.280877 1.324674 -1.802776 1.802776 
C -1.324674 2.280877 -0.676138 2.54951 0 2.54951 
z
" style="stroke: #ffffff; stroke-opacity: 0.9; stroke-width: 0.55"/>
    </defs>
    <g clip-path="url(#p5e85b9a9b7)">
     <use xlink:href="#m2174f43cca" x="234.075132" y="45.532179" style="fill: #c96f3d; fill-opacity: 0.9; stroke: #ffffff; stroke-opacity: 0.9; stroke-width: 0.55"/>
     <use xlink:href="#m2174f43cca" x="226.308062" y="71.651664" style="fill: #c96f3d; fill-opacity: 0.9; stroke: #ffffff; stroke-opacity: 0.9; stroke-width: 0.55"/>
     <use xlink:href="#m2174f43cca" x="240.73262" y="134.773754" style="fill: #c96f3d; fill-opacity: 0.9; stroke: #ffffff; stroke-opacity: 0.9; stroke-width: 0.55"/>
     <use xlink:href="#m2174f43cca" x="92.04872" y="136.950378" style="fill: #c96f3d; fill-opacity: 0.9; stroke: #ffffff; stroke-opacity: 0.9; stroke-width: 0.55"/>
     <use xlink:href="#m2174f43cca" x="114.240347" y="132.59713" style="fill: #c96f3d; fill-opacity: 0.9; stroke: #ffffff; stroke-opacity: 0.9; stroke-width: 0.55"/>
     <use xlink:href="#m2174f43cca" x="95.377464" y="139.127001" style="fill: #c96f3d; fill-opacity: 0.9; stroke: #ffffff; stroke-opacity: 0.9; stroke-width: 0.55"/>
     <use xlink:href="#m2174f43cca" x="105.363696" y="126.067259" style="fill: #c96f3d; fill-opacity: 0.9; stroke: #ffffff; stroke-opacity: 0.9; stroke-width: 0.55"/>
     <use xlink:href="#m2174f43cca" x="53.213373" y="150.01012" style="fill: #c96f3d; fill-opacity: 0.9; stroke: #ffffff; stroke-opacity: 0.9; stroke-width: 0.55"/>
     <use xlink:href="#m2174f43cca" x="221.869737" y="107.565957" style="fill: #c96f3d; fill-opacity: 0.9; stroke: #ffffff; stroke-opacity: 0.9; stroke-width: 0.55"/>
     <use xlink:href="#m2174f43cca" x="184.143971" y="115.18414" style="fill: #c96f3d; fill-opacity: 0.9; stroke: #ffffff; stroke-opacity: 0.9; stroke-width: 0.55"/>
     <use xlink:href="#m2174f43cca" x="170.828995" y="143.480249" style="fill: #c96f3d; fill-opacity: 0.9; stroke: #ffffff; stroke-opacity: 0.9; stroke-width: 0.55"/>
    </g>
   </g>
   <g id="text_18">
    <g id="patch_5">
     <path d="M 42.974822 53.561801 
L 108.651009 53.561801 
Q 110.301009 53.561801 110.301009 51.911801 
L 110.301009 31.740138 
Q 110.301009 30.090138 108.651009 30.090138 
L 42.974822 30.090138 
Q 41.324822 30.090138 41.324822 31.740138 
L 41.324822 51.911801 
Q 41.324822 53.561801 42.974822 53.561801 
z
" style="fill: #ffffff; stroke: #d8dde1; stroke-width: 0.5; stroke-linejoin: miter"/>
    </g>
    <text style="font-size: 6.6px; font-family: 'Arial', 'Helvetica', 'DejaVu Sans', sans-serif; fill: #3b4045" transform="translate(42.974822 36.561232)">Adjusted B = 0.274</text>
    <text style="font-size: 6.6px; font-family: 'Arial', 'Helvetica', 'DejaVu Sans', sans-serif; fill: #3b4045" transform="translate(42.974822 43.619313)">95% CI 0.098 to 0.449</text>
    <text style="font-size: 6.6px; font-family: 'Arial', 'Helvetica', 'DejaVu Sans', sans-serif; fill: #3b4045" transform="translate(42.974822 50.600051)">P = .004</text>
   </g>
   <g id="text_19">
    <text style="font-weight: 700; font-size: 8px; font-family: 'Arial', 'Helvetica', 'DejaVu Sans', sans-serif; text-anchor: start; fill: #2d3436" x="7.571188" y="21.993209" transform="rotate(-0 7.571188 21.993209)">a</text>
   </g>
   <g id="text_20">
    <text style="font-weight: 700; font-size: 8.5px; font-family: 'Arial', 'Helvetica', 'DejaVu Sans', sans-serif; text-anchor: start; fill: #2d3436" x="36.336641" y="21.633974" transform="rotate(-0 36.336641 21.633974)">Suture-completion score</text>
   </g>
  </g>
  <g id="axes_2">
   <g id="patch_6">
    <path d="M 293.567113 199.417557 
L 514.839825 199.417557 
L 514.839825 26.633974 
L 293.567113 26.633974 
z
" style="fill: #ffffff"/>
   </g>
   <g id="matplotlib.axis_3">
    <g id="xtick_8">
     <g id="line2d_25">
      <g>
       <use xlink:href="#m0866c980bf" x="312.663008" y="199.417557" style="fill: #343a40; stroke: #343a40; stroke-width: 0.55"/>
      </g>
     </g>
     <g id="text_21">
      <text style="font-size: 6.5px; font-family: 'Arial', 'Helvetica', 'DejaVu Sans', sans-serif; text-anchor: middle; fill: #343a40" x="312.663008" y="210.070135" transform="rotate(-0 312.663008 210.070135)">10</text>
     </g>
    </g>
    <g id="xtick_9">
     <g id="line2d_26">
      <g>
       <use xlink:href="#m0866c980bf" x="345.950448" y="199.417557" style="fill: #343a40; stroke: #343a40; stroke-width: 0.55"/>
      </g>
     </g>
     <g id="text_22">
      <text style="font-size: 6.5px; font-family: 'Arial', 'Helvetica', 'DejaVu Sans', sans-serif; text-anchor: middle; fill: #343a40" x="345.950448" y="210.070135" transform="rotate(-0 345.950448 210.070135)">15</text>
     </g>
    </g>
    <g id="xtick_10">
     <g id="line2d_27">
      <g>
       <use xlink:href="#m0866c980bf" x="379.237889" y="199.417557" style="fill: #343a40; stroke: #343a40; stroke-width: 0.55"/>
      </g>
     </g>
     <g id="text_23">
      <text style="font-size: 6.5px; font-family: 'Arial', 'Helvetica', 'DejaVu Sans', sans-serif; text-anchor: middle; fill: #343a40" x="379.237889" y="210.070135" transform="rotate(-0 379.237889 210.070135)">20</text>
     </g>
    </g>
    <g id="xtick_11">
     <g id="line2d_28">
      <g>
       <use xlink:href="#m0866c980bf" x="412.525329" y="199.417557" style="fill: #343a40; stroke: #343a40; stroke-width: 0.55"/>
      </g>
     </g>
     <g id="text_24">
      <text style="font-size: 6.5px; font-family: 'Arial', 'Helvetica', 'DejaVu Sans', sans-serif; text-anchor: middle; fill: #343a40" x="412.525329" y="210.070135" transform="rotate(-0 412.525329 210.070135)">25</text>
     </g>
    </g>
    <g id="xtick_12">
     <g id="line2d_29">
      <g>
       <use xlink:href="#m0866c980bf" x="445.812769" y="199.417557" style="fill: #343a40; stroke: #343a40; stroke-width: 0.55"/>
      </g>
     </g>
     <g id="text_25">
      <text style="font-size: 6.5px; font-family: 'Arial', 'Helvetica', 'DejaVu Sans', sans-serif; text-anchor: middle; fill: #343a40" x="445.812769" y="210.070135" transform="rotate(-0 445.812769 210.070135)">30</text>
     </g>
    </g>
    <g id="xtick_13">
     <g id="line2d_30">
      <g>
       <use xlink:href="#m0866c980bf" x="479.10021" y="199.417557" style="fill: #343a40; stroke: #343a40; stroke-width: 0.55"/>
      </g>
     </g>
     <g id="text_26">
      <text style="font-size: 6.5px; font-family: 'Arial', 'Helvetica', 'DejaVu Sans', sans-serif; text-anchor: middle; fill: #343a40" x="479.10021" y="210.070135" transform="rotate(-0 479.10021 210.070135)">35</text>
     </g>
    </g>
    <g id="xtick_14">
     <g id="line2d_31">
      <g>
       <use xlink:href="#m0866c980bf" x="512.38765" y="199.417557" style="fill: #343a40; stroke: #343a40; stroke-width: 0.55"/>
      </g>
     </g>
     <g id="text_27">
      <text style="font-size: 6.5px; font-family: 'Arial', 'Helvetica', 'DejaVu Sans', sans-serif; text-anchor: middle; fill: #343a40" x="512.38765" y="210.070135" transform="rotate(-0 512.38765 210.070135)">40</text>
     </g>
    </g>
    <g id="text_28">
     <text style="font-size: 7px; font-family: 'Arial', 'Helvetica', 'DejaVu Sans', sans-serif; text-anchor: middle" x="404.203469" y="220.372479" transform="rotate(-0 404.203469 220.372479)">Within-training mean LT-RN count</text>
    </g>
   </g>
   <g id="matplotlib.axis_4">
    <g id="ytick_9">
     <g id="line2d_32">
      <path d="M 293.567113 169.939916 
L 514.839825 169.939916 
" clip-path="url(#pe8ac8b5977)" style="fill: none; stroke: #d9dee2; stroke-opacity: 0.85; stroke-width: 0.45; stroke-linecap: square"/>
     </g>
     <g id="line2d_33">
      <g>
       <use xlink:href="#me735a35173" x="293.567113" y="169.939916" style="fill: #343a40; stroke: #343a40; stroke-width: 0.55"/>
      </g>
     </g>
     <g id="text_29">
      <text style="font-size: 6.5px; font-family: 'Arial', 'Helvetica', 'DejaVu Sans', sans-serif; text-anchor: end; fill: #343a40" x="287.567113" y="172.266205" transform="rotate(-0 287.567113 172.266205)">0</text>
     </g>
    </g>
    <g id="ytick_10">
     <g id="line2d_34">
      <path d="M 293.567113 139.022018 
L 514.839825 139.022018 
" clip-path="url(#pe8ac8b5977)" style="fill: none; stroke: #d9dee2; stroke-opacity: 0.85; stroke-width: 0.45; stroke-linecap: square"/>
     </g>
     <g id="line2d_35">
      <g>
       <use xlink:href="#me735a35173" x="293.567113" y="139.022018" style="fill: #343a40; stroke: #343a40; stroke-width: 0.55"/>
      </g>
     </g>
     <g id="text_30">
      <text style="font-size: 6.5px; font-family: 'Arial', 'Helvetica', 'DejaVu Sans', sans-serif; text-anchor: end; fill: #343a40" x="287.567113" y="141.348307" transform="rotate(-0 287.567113 141.348307)">100</text>
     </g>
    </g>
    <g id="ytick_11">
     <g id="line2d_36">
      <path d="M 293.567113 108.104119 
L 514.839825 108.104119 
" clip-path="url(#pe8ac8b5977)" style="fill: none; stroke: #d9dee2; stroke-opacity: 0.85; stroke-width: 0.45; stroke-linecap: square"/>
     </g>
     <g id="line2d_37">
      <g>
       <use xlink:href="#me735a35173" x="293.567113" y="108.104119" style="fill: #343a40; stroke: #343a40; stroke-width: 0.55"/>
      </g>
     </g>
     <g id="text_31">
      <text style="font-size: 6.5px; font-family: 'Arial', 'Helvetica', 'DejaVu Sans', sans-serif; text-anchor: end; fill: #343a40" x="287.567113" y="110.430408" transform="rotate(-0 287.567113 110.430408)">200</text>
     </g>
    </g>
    <g id="ytick_12">
     <g id="line2d_38">
      <path d="M 293.567113 77.186221 
L 514.839825 77.186221 
" clip-path="url(#pe8ac8b5977)" style="fill: none; stroke: #d9dee2; stroke-opacity: 0.85; stroke-width: 0.45; stroke-linecap: square"/>
     </g>
     <g id="line2d_39">
      <g>
       <use xlink:href="#me735a35173" x="293.567113" y="77.186221" style="fill: #343a40; stroke: #343a40; stroke-width: 0.55"/>
      </g>
     </g>
     <g id="text_32">
      <text style="font-size: 6.5px; font-family: 'Arial', 'Helvetica', 'DejaVu Sans', sans-serif; text-anchor: end; fill: #343a40" x="287.567113" y="79.51251" transform="rotate(-0 287.567113 79.51251)">300</text>
     </g>
    </g>
    <g id="ytick_13">
     <g id="line2d_40">
      <path d="M 293.567113 46.268322 
L 514.839825 46.268322 
" clip-path="url(#pe8ac8b5977)" style="fill: none; stroke: #d9dee2; stroke-opacity: 0.85; stroke-width: 0.45; stroke-linecap: square"/>
     </g>
     <g id="line2d_41">
      <g>
       <use xlink:href="#me735a35173" x="293.567113" y="46.268322" style="fill: #343a40; stroke: #343a40; stroke-width: 0.55"/>
      </g>
     </g>
     <g id="text_33">
      <text style="font-size: 6.5px; font-family: 'Arial', 'Helvetica', 'DejaVu Sans', sans-serif; text-anchor: end; fill: #343a40" x="287.567113" y="48.594611" transform="rotate(-0 287.567113 48.594611)">400</text>
     </g>
    </g>
    <g id="text_34">
     <text style="font-size: 7px; font-family: 'Arial', 'Helvetica', 'DejaVu Sans', sans-serif; text-anchor: middle" x="271.250004" y="113.025766" transform="rotate(-90 271.250004 113.025766)">Duration (s/equivalent suture)</text>
    </g>
   </g>
   <g id="FillBetweenPolyCollection_2">
    <defs>
     <path id="m7ff8a5204e" d="M 310.443845 -170.669696 
L 310.443845 -126.394074 
L 312.019637 -126.10774 
L 313.595429 -125.820194 
L 315.171221 -125.531376 
L 316.747013 -125.241226 
L 318.322805 -124.949679 
L 319.898597 -124.656667 
L 321.474389 -124.362118 
L 323.050181 -124.065953 
L 324.625973 -123.768091 
L 326.201765 -123.468444 
L 327.777557 -123.166919 
L 329.353349 -122.863418 
L 330.929141 -122.557835 
L 332.504933 -122.250057 
L 334.080725 -121.939967 
L 335.656517 -121.627435 
L 337.232309 -121.312327 
L 338.808101 -120.994498 
L 340.383893 -120.673793 
L 341.959685 -120.350048 
L 343.535477 -120.023087 
L 345.111269 -119.692724 
L 346.687061 -119.358759 
L 348.262853 -119.020978 
L 349.838645 -118.679156 
L 351.414437 -118.333051 
L 352.990229 -117.982407 
L 354.566021 -117.626951 
L 356.141813 -117.266393 
L 357.717605 -116.900426 
L 359.293397 -116.528724 
L 360.869189 -116.150946 
L 362.444981 -115.766727 
L 364.020773 -115.375689 
L 365.596565 -114.977431 
L 367.172357 -114.571538 
L 368.748149 -114.157576 
L 370.323941 -113.735096 
L 371.899733 -113.303638 
L 373.475525 -112.862727 
L 375.051317 -112.411883 
L 376.627109 -111.950624 
L 378.202901 -111.478464 
L 379.778693 -110.994925 
L 381.354485 -110.499542 
L 382.930277 -109.991865 
L 384.506069 -109.471468 
L 386.081861 -108.937959 
L 387.657653 -108.390981 
L 389.233445 -107.830223 
L 390.809237 -107.255424 
L 392.385029 -106.666378 
L 393.960821 -106.062942 
L 395.536613 -105.445036 
L 397.112405 -104.812642 
L 398.688197 -104.165813 
L 400.263989 -103.504663 
L 401.839781 -102.829369 
L 403.415573 -102.140168 
L 404.991365 -101.437346 
L 406.567157 -100.721241 
L 408.142949 -99.99223 
L 409.718741 -99.250724 
L 411.294533 -98.497161 
L 412.870325 -97.732002 
L 414.446117 -96.955719 
L 416.021909 -96.168794 
L 417.597701 -95.371712 
L 419.173493 -94.564955 
L 420.749285 -93.749001 
L 422.325077 -92.924316 
L 423.900869 -92.091355 
L 425.476661 -91.250559 
L 427.052453 -90.402353 
L 428.628245 -89.547143 
L 430.204037 -88.685319 
L 431.779829 -87.817251 
L 433.355621 -86.943292 
L 434.931413 -86.063776 
L 436.507205 -85.179017 
L 438.082997 -84.289313 
L 439.658789 -83.394945 
L 441.234581 -82.496176 
L 442.810373 -81.593256 
L 444.386165 -80.686418 
L 445.961957 -79.77588 
L 447.537749 -78.861848 
L 449.113541 -77.944516 
L 450.689333 -77.024062 
L 452.265125 -76.100659 
L 453.840917 -75.174463 
L 455.416709 -74.245625 
L 456.992501 -73.314284 
L 458.568293 -72.380571 
L 460.144085 -71.44461 
L 461.719877 -70.506515 
L 463.295669 -69.566396 
L 464.871461 -68.624354 
L 466.447253 -67.680484 
L 468.023045 -66.734878 
L 469.598837 -65.787618 
L 471.174629 -64.838785 
L 472.750421 -63.888454 
L 474.326213 -62.936694 
L 475.902005 -61.983574 
L 477.477797 -61.029154 
L 479.053589 -60.073495 
L 480.629381 -59.116651 
L 482.205173 -58.158676 
L 483.780965 -57.199619 
L 485.356757 -56.239527 
L 486.932548 -55.278445 
L 488.50834 -54.316415 
L 490.084132 -53.353476 
L 491.659924 -52.389666 
L 493.235716 -51.425022 
L 494.811508 -50.459576 
L 496.3873 -49.493361 
L 497.963092 -48.526407 
L 497.963092 -100.673896 
L 497.963092 -100.673896 
L 496.3873 -100.949493 
L 494.811508 -101.225828 
L 493.235716 -101.502932 
L 491.659924 -101.780838 
L 490.084132 -102.059578 
L 488.50834 -102.33919 
L 486.932548 -102.619709 
L 485.356757 -102.901177 
L 483.780965 -103.183636 
L 482.205173 -103.467129 
L 480.629381 -103.751704 
L 479.053589 -104.037411 
L 477.477797 -104.324301 
L 475.902005 -104.612432 
L 474.326213 -104.901861 
L 472.750421 -105.192652 
L 471.174629 -105.484871 
L 469.598837 -105.778588 
L 468.023045 -106.073879 
L 466.447253 -106.370822 
L 464.871461 -106.669503 
L 463.295669 -106.970011 
L 461.719877 -107.272442 
L 460.144085 -107.576897 
L 458.568293 -107.883486 
L 456.992501 -108.192324 
L 455.416709 -108.503533 
L 453.840917 -108.817245 
L 452.265125 -109.133599 
L 450.689333 -109.452745 
L 449.113541 -109.774842 
L 447.537749 -110.10006 
L 445.961957 -110.428578 
L 444.386165 -110.76059 
L 442.810373 -111.096302 
L 441.234581 -111.435932 
L 439.658789 -111.779714 
L 438.082997 -112.127896 
L 436.507205 -112.480742 
L 434.931413 -112.838533 
L 433.355621 -113.201567 
L 431.779829 -113.570158 
L 430.204037 -113.944641 
L 428.628245 -114.325367 
L 427.052453 -114.712707 
L 425.476661 -115.107051 
L 423.900869 -115.508805 
L 422.325077 -115.918395 
L 420.749285 -116.33626 
L 419.173493 -116.762855 
L 417.597701 -117.198649 
L 416.021909 -117.644117 
L 414.446117 -118.099742 
L 412.870325 -118.566009 
L 411.294533 -119.0434 
L 409.718741 -119.532388 
L 408.142949 -120.033431 
L 406.567157 -120.54697 
L 404.991365 -121.073416 
L 403.415573 -121.613144 
L 401.839781 -122.166492 
L 400.263989 -122.733749 
L 398.688197 -123.315149 
L 397.112405 -123.91087 
L 395.536613 -124.521027 
L 393.960821 -125.14567 
L 392.385029 -125.784785 
L 390.809237 -126.438289 
L 389.233445 -127.10604 
L 387.657653 -127.787832 
L 386.081861 -128.483404 
L 384.506069 -129.192445 
L 382.930277 -129.914599 
L 381.354485 -130.649472 
L 379.778693 -131.396639 
L 378.202901 -132.15565 
L 376.627109 -132.926041 
L 375.051317 -133.707331 
L 373.475525 -134.499038 
L 371.899733 -135.300677 
L 370.323941 -136.111768 
L 368.748149 -136.931839 
L 367.172357 -137.760427 
L 365.596565 -138.597084 
L 364.020773 -139.441376 
L 362.444981 -140.292888 
L 360.869189 -141.15122 
L 359.293397 -142.015991 
L 357.717605 -142.88684 
L 356.141813 -143.763423 
L 354.566021 -144.645415 
L 352.990229 -145.532509 
L 351.414437 -146.424415 
L 349.838645 -147.32086 
L 348.262853 -148.221589 
L 346.687061 -149.126358 
L 345.111269 -150.034943 
L 343.535477 -150.94713 
L 341.959685 -151.862719 
L 340.383893 -152.781524 
L 338.808101 -153.70337 
L 337.232309 -154.628091 
L 335.656517 -155.555533 
L 334.080725 -156.485551 
L 332.504933 -157.418011 
L 330.929141 -158.352783 
L 329.353349 -159.28975 
L 327.777557 -160.228799 
L 326.201765 -161.169825 
L 324.625973 -162.112728 
L 323.050181 -163.057416 
L 321.474389 -164.003801 
L 319.898597 -164.951802 
L 318.322805 -165.90134 
L 316.747013 -166.852344 
L 315.171221 -167.804744 
L 313.595429 -168.758476 
L 312.019637 -169.713479 
L 310.443845 -170.669696 
z
"/>
    </defs>
    <g clip-path="url(#pe8ac8b5977)">
     <use xlink:href="#m7ff8a5204e" x="0" y="229.04576" style="fill: #2d3436; fill-opacity: 0.12"/>
    </g>
   </g>
   <g id="line2d_42">
    <path d="M 310.443845 80.513875 
L 312.019637 81.13515 
L 313.595429 81.756425 
L 315.171221 82.3777 
L 316.747013 82.998975 
L 318.322805 83.62025 
L 319.898597 84.241525 
L 321.474389 84.862801 
L 323.050181 85.484076 
L 324.625973 86.105351 
L 326.201765 86.726626 
L 327.777557 87.347901 
L 329.353349 87.969176 
L 330.929141 88.590451 
L 332.504933 89.211726 
L 334.080725 89.833001 
L 335.656517 90.454276 
L 337.232309 91.075551 
L 338.808101 91.696826 
L 340.383893 92.318101 
L 341.959685 92.939376 
L 343.535477 93.560651 
L 345.111269 94.181927 
L 346.687061 94.803202 
L 348.262853 95.424477 
L 349.838645 96.045752 
L 351.414437 96.667027 
L 352.990229 97.288302 
L 354.566021 97.909577 
L 356.141813 98.530852 
L 357.717605 99.152127 
L 359.293397 99.773402 
L 360.869189 100.394677 
L 362.444981 101.015952 
L 364.020773 101.637227 
L 365.596565 102.258502 
L 367.172357 102.879778 
L 368.748149 103.501053 
L 370.323941 104.122328 
L 371.899733 104.743603 
L 373.475525 105.364878 
L 375.051317 105.986153 
L 376.627109 106.607428 
L 378.202901 107.228703 
L 379.778693 107.849978 
L 381.354485 108.471253 
L 382.930277 109.092528 
L 384.506069 109.713803 
L 386.081861 110.335078 
L 387.657653 110.956353 
L 389.233445 111.577628 
L 390.809237 112.198904 
L 392.385029 112.820179 
L 393.960821 113.441454 
L 395.536613 114.062729 
L 397.112405 114.684004 
L 398.688197 115.305279 
L 400.263989 115.926554 
L 401.839781 116.547829 
L 403.415573 117.169104 
L 404.991365 117.790379 
L 406.567157 118.411654 
L 408.142949 119.032929 
L 409.718741 119.654204 
L 411.294533 120.275479 
L 412.870325 120.896754 
L 414.446117 121.51803 
L 416.021909 122.139305 
L 417.597701 122.76058 
L 419.173493 123.381855 
L 420.749285 124.00313 
L 422.325077 124.624405 
L 423.900869 125.24568 
L 425.476661 125.866955 
L 427.052453 126.48823 
L 428.628245 127.109505 
L 430.204037 127.73078 
L 431.779829 128.352055 
L 433.355621 128.97333 
L 434.931413 129.594605 
L 436.507205 130.215881 
L 438.082997 130.837156 
L 439.658789 131.458431 
L 441.234581 132.079706 
L 442.810373 132.700981 
L 444.386165 133.322256 
L 445.961957 133.943531 
L 447.537749 134.564806 
L 449.113541 135.186081 
L 450.689333 135.807356 
L 452.265125 136.428631 
L 453.840917 137.049906 
L 455.416709 137.671181 
L 456.992501 138.292456 
L 458.568293 138.913731 
L 460.144085 139.535007 
L 461.719877 140.156282 
L 463.295669 140.777557 
L 464.871461 141.398832 
L 466.447253 142.020107 
L 468.023045 142.641382 
L 469.598837 143.262657 
L 471.174629 143.883932 
L 472.750421 144.505207 
L 474.326213 145.126482 
L 475.902005 145.747757 
L 477.477797 146.369032 
L 479.053589 146.990307 
L 480.629381 147.611582 
L 482.205173 148.232857 
L 483.780965 148.854133 
L 485.356757 149.475408 
L 486.932548 150.096683 
L 488.50834 150.717958 
L 490.084132 151.339233 
L 491.659924 151.960508 
L 493.235716 152.581783 
L 494.811508 153.203058 
L 496.3873 153.824333 
L 497.963092 154.445608 
" clip-path="url(#pe8ac8b5977)" style="fill: none; stroke: #2d3436; stroke-width: 1.35; stroke-linecap: square"/>
   </g>
   <g id="patch_7">
    <path d="M 293.567113 199.417557 
L 293.567113 26.633974 
" style="fill: none; stroke: #60666b; stroke-width: 0.6; stroke-linejoin: miter; stroke-linecap: square"/>
   </g>
   <g id="patch_8">
    <path d="M 293.567113 199.417557 
L 514.839825 199.417557 
" style="fill: none; stroke: #60666b; stroke-width: 0.6; stroke-linejoin: miter; stroke-linecap: square"/>
   </g>
   <g id="PathCollection_3">
    <g clip-path="url(#pe8ac8b5977)">
     <use xlink:href="#m61c3379397" x="344.618951" y="121.149873" style="fill: #3f6f8f; fill-opacity: 0.9; stroke: #ffffff; stroke-opacity: 0.9; stroke-width: 0.55"/>
     <use xlink:href="#m61c3379397" x="379.237889" y="120.765598" style="fill: #3f6f8f; fill-opacity: 0.9; stroke: #ffffff; stroke-opacity: 0.9; stroke-width: 0.55"/>
     <use xlink:href="#m61c3379397" x="438.0457" y="122.619791" style="fill: #3f6f8f; fill-opacity: 0.9; stroke: #ffffff; stroke-opacity: 0.9; stroke-width: 0.55"/>
     <use xlink:href="#m61c3379397" x="379.237889" y="97.856575" style="fill: #3f6f8f; fill-opacity: 0.9; stroke: #ffffff; stroke-opacity: 0.9; stroke-width: 0.55"/>
     <use xlink:href="#m61c3379397" x="364.813331" y="123.590341" style="fill: #3f6f8f; fill-opacity: 0.9; stroke: #ffffff; stroke-opacity: 0.9; stroke-width: 0.55"/>
     <use xlink:href="#m61c3379397" x="323.758822" y="45.532179" style="fill: #3f6f8f; fill-opacity: 0.9; stroke: #ffffff; stroke-opacity: 0.9; stroke-width: 0.55"/>
     <use xlink:href="#m61c3379397" x="381.457051" y="146.415653" style="fill: #3f6f8f; fill-opacity: 0.9; stroke: #ffffff; stroke-opacity: 0.9; stroke-width: 0.55"/>
     <use xlink:href="#m61c3379397" x="364.813331" y="88.92955" style="fill: #3f6f8f; fill-opacity: 0.9; stroke: #ffffff; stroke-opacity: 0.9; stroke-width: 0.55"/>
     <use xlink:href="#m61c3379397" x="402.539097" y="95.509023" style="fill: #3f6f8f; fill-opacity: 0.9; stroke: #ffffff; stroke-opacity: 0.9; stroke-width: 0.55"/>
     <use xlink:href="#m61c3379397" x="355.936681" y="58.794812" style="fill: #3f6f8f; fill-opacity: 0.9; stroke: #ffffff; stroke-opacity: 0.9; stroke-width: 0.55"/>
     <use xlink:href="#m61c3379397" x="390.333702" y="110.257597" style="fill: #3f6f8f; fill-opacity: 0.9; stroke: #ffffff; stroke-opacity: 0.9; stroke-width: 0.55"/>
    </g>
   </g>
   <g id="PathCollection_4">
    <g clip-path="url(#pe8ac8b5977)">
     <use xlink:href="#m2174f43cca" x="491.305604" y="155.49891" style="fill: #c96f3d; fill-opacity: 0.9; stroke: #ffffff; stroke-opacity: 0.9; stroke-width: 0.55"/>
     <use xlink:href="#m2174f43cca" x="483.538535" y="151.004979" style="fill: #c96f3d; fill-opacity: 0.9; stroke: #ffffff; stroke-opacity: 0.9; stroke-width: 0.55"/>
     <use xlink:href="#m2174f43cca" x="497.963092" y="115.248208" style="fill: #c96f3d; fill-opacity: 0.9; stroke: #ffffff; stroke-opacity: 0.9; stroke-width: 0.55"/>
     <use xlink:href="#m2174f43cca" x="349.279192" y="126.160383" style="fill: #c96f3d; fill-opacity: 0.9; stroke: #ffffff; stroke-opacity: 0.9; stroke-width: 0.55"/>
     <use xlink:href="#m2174f43cca" x="371.470819" y="135.353192" style="fill: #c96f3d; fill-opacity: 0.9; stroke: #ffffff; stroke-opacity: 0.9; stroke-width: 0.55"/>
     <use xlink:href="#m2174f43cca" x="352.607936" y="82.000885" style="fill: #c96f3d; fill-opacity: 0.9; stroke: #ffffff; stroke-opacity: 0.9; stroke-width: 0.55"/>
     <use xlink:href="#m2174f43cca" x="362.594169" y="136.921868" style="fill: #c96f3d; fill-opacity: 0.9; stroke: #ffffff; stroke-opacity: 0.9; stroke-width: 0.55"/>
     <use xlink:href="#m2174f43cca" x="310.443845" y="80.227776" style="fill: #c96f3d; fill-opacity: 0.9; stroke: #ffffff; stroke-opacity: 0.9; stroke-width: 0.55"/>
     <use xlink:href="#m2174f43cca" x="479.10021" y="139.472206" style="fill: #c96f3d; fill-opacity: 0.9; stroke: #ffffff; stroke-opacity: 0.9; stroke-width: 0.55"/>
     <use xlink:href="#m2174f43cca" x="441.374444" y="142.470769" style="fill: #c96f3d; fill-opacity: 0.9; stroke: #ffffff; stroke-opacity: 0.9; stroke-width: 0.55"/>
     <use xlink:href="#m2174f43cca" x="428.059468" y="109.942799" style="fill: #c96f3d; fill-opacity: 0.9; stroke: #ffffff; stroke-opacity: 0.9; stroke-width: 0.55"/>
    </g>
   </g>
   <g id="text_35">
    <g id="patch_9">
     <path d="M 300.205295 53.561801 
L 366.606451 53.561801 
Q 368.256451 53.561801 368.256451 51.911801 
L 368.256451 31.740138 
Q 368.256451 30.090138 366.606451 30.090138 
L 300.205295 30.090138 
Q 298.555295 30.090138 298.555295 31.740138 
L 298.555295 51.911801 
Q 298.555295 53.561801 300.205295 53.561801 
z
" style="fill: #ffffff; stroke: #d8dde1; stroke-width: 0.5; stroke-linejoin: miter"/>
    </g>
    <text style="font-size: 6.6px; font-family: 'Arial', 'Helvetica', 'DejaVu Sans', sans-serif; fill: #3b4045" transform="translate(300.205295 36.561232)">Adjusted B = -8.49</text>
    <text style="font-size: 6.6px; font-family: 'Arial', 'Helvetica', 'DejaVu Sans', sans-serif; fill: #3b4045" transform="translate(300.205295 43.619313)">95% CI -13.57 to -3.41</text>
    <text style="font-size: 6.6px; font-family: 'Arial', 'Helvetica', 'DejaVu Sans', sans-serif; fill: #3b4045" transform="translate(300.205295 50.600051)">P = .003</text>
   </g>
   <g id="text_36">
    <text style="font-weight: 700; font-size: 8px; font-family: 'Arial', 'Helvetica', 'DejaVu Sans', sans-serif; text-anchor: start; fill: #2d3436" x="264.801661" y="21.993209" transform="rotate(-0 264.801661 21.993209)">b</text>
   </g>
   <g id="text_37">
    <text style="font-weight: 700; font-size: 8.5px; font-family: 'Arial', 'Helvetica', 'DejaVu Sans', sans-serif; text-anchor: start; fill: #2d3436" x="293.567113" y="21.633974" transform="rotate(-0 293.567113 21.633974)">Mean active suture duration</text>
   </g>
  </g>
  <g id="legend_1">
   <g id="PathCollection_5">
    <g>
     <use xlink:href="#m61c3379397" x="212.608955" y="12.825547" style="fill: #3f6f8f; fill-opacity: 0.9; stroke: #ffffff; stroke-opacity: 0.9; stroke-width: 0.55"/>
    </g>
   </g>
   <g id="text_38">
    <text style="font-size: 6.5px; font-family: 'Arial', 'Helvetica', 'DejaVu Sans', sans-serif; text-anchor: start" x="222.683955" y="14.531797" transform="rotate(-0 222.683955 14.531797)">Uniform difficulty</text>
   </g>
   <g id="PathCollection_6">
    <g>
     <use xlink:href="#m2174f43cca" x="283.282237" y="12.825547" style="fill: #c96f3d; fill-opacity: 0.9; stroke: #ffffff; stroke-opacity: 0.9; stroke-width: 0.55"/>
    </g>
   </g>
   <g id="text_39">
    <text style="font-size: 6.5px; font-family: 'Arial', 'Helvetica', 'DejaVu Sans', sans-serif; text-anchor: start" x="293.357237" y="14.531797" transform="rotate(-0 293.357237 14.531797)">Workload-adapted</text>
   </g>
  </g>
 </g>
 <defs>
  <clipPath id="p5e85b9a9b7">
   <rect x="36.336641" y="26.633974" width="221.272711" height="172.783583"/>
  </clipPath>
  <clipPath id="pe8ac8b5977">
   <rect x="293.567113" y="26.633974" width="221.272711" height="172.783583"/>
  </clipPath>
 </defs>
</svg>
